<?xml version="1.0" encoding="UTF-8"?>
<svg version="1.1" xmlns="http://www.w3.org/2000/svg" width="600" height="600">
<path d="M0 0 C3.11708506 0.24244767 6.23483342 0.47431291 9.35284424 0.70452881 C22.92270803 1.71625582 36.47158895 2.89049411 50.01251221 4.23431396 C51.25188538 4.35613037 51.25188538 4.35613037 52.51629639 4.48040771 C79.64722262 7.16414694 105.34625646 10.28713986 124.52423096 32.08978271 C148.5647683 62.80603952 147.43964188 117.07242962 149.20001221 154.42181396 C149.26447037 155.77662872 149.26447037 155.77662872 149.33023071 157.15881348 C150.17836701 175.41756315 150.19189959 193.54228578 149.26251221 211.79681396 C149.19815979 213.07180756 149.19815979 213.07180756 149.13250732 214.37255859 C147.70233231 242.05008766 144.82494709 269.53782302 141.01251221 296.98431396 C140.89299194 297.86432068 140.77347168 298.74432739 140.65032959 299.65100098 C137.80755464 320.37749454 133.03301811 338.75785147 116.10626221 352.61322021 C101.96992399 362.95304186 87.17053982 367.56059841 70.01251221 370.23431396 C69.00188721 370.39496338 67.99126221 370.55561279 66.95001221 370.72113037 C44.75110431 374.17960707 22.39691267 376.40094408 0.01251221 378.23431396 C-1.36686523 378.35029938 -1.36686523 378.35029938 -2.77410889 378.46862793 C-73.09022269 384.328818 -145.92237744 384.38564209 -216.23590088 378.46539307 C-219.04867226 378.22917567 -221.86216909 378.00387706 -224.67596436 377.7802124 C-243.21975891 376.28730848 -261.68611406 374.30003064 -280.11248779 371.73431396 C-281.16152283 371.59077484 -281.16152283 371.59077484 -282.23175049 371.44433594 C-306.58402316 368.06663692 -329.53301896 361.7913089 -345.98748779 342.23431396 C-355.00498387 329.9717674 -358.18805452 316.99924874 -360.54998779 302.10931396 C-360.76050781 300.80744141 -360.97102783 299.50556885 -361.18792725 298.16424561 C-366.64952164 263.85242569 -368.35195562 229.52141998 -368.30316162 194.83734131 C-368.2985569 191.29001085 -368.30537473 187.74302556 -368.32366943 184.19573975 C-368.96609044 58.2684188 -368.96609044 58.2684188 -343.23822021 31.29022217 C-326.57556062 14.66705424 -304.57375204 9.80804485 -282.04998779 6.73431396 C-281.3087265 6.63137024 -280.56746521 6.52842651 -279.80374146 6.42236328 C-261.51915978 3.89678484 -243.19352417 1.94396068 -224.79577637 0.46148682 C-222.94417485 0.31170392 -221.09280543 0.1590196 -219.24169922 0.00323486 C-146.93695527 -6.06642846 -72.32108774 -5.64472483 0 0 Z M-277.36248779 31.79681396 C-278.03694946 31.89677673 -278.71141113 31.9967395 -279.40631104 32.09973145 C-290.51772726 33.76971295 -301.12734435 35.80660485 -311.17498779 40.98431396 C-311.85988281 41.33429443 -312.54477783 41.6842749 -313.25042725 42.04486084 C-321.4896975 46.38679432 -328.00359779 51.6458395 -331.98748779 60.23431396 C-334.41855223 68.17999754 -335.80366225 76.33755122 -336.98748779 84.54681396 C-337.15482422 85.69327393 -337.32216064 86.83973389 -337.49456787 88.02093506 C-338.77769165 97.11344723 -339.79081353 106.22101161 -340.67498779 115.35931396 C-340.79422607 116.58948242 -340.91346436 117.81965088 -341.03631592 119.08709717 C-342.45631922 134.447552 -343.15378203 149.74199411 -343.19061279 165.16400146 C-343.19344017 165.98733097 -343.19626755 166.81066048 -343.1991806 167.65893936 C-343.2140375 172.03058419 -343.22334747 176.40219726 -343.22772217 180.77386475 C-343.23206906 184.2987118 -343.24583253 187.82330887 -343.26873779 191.3480835 C-343.50872378 229.07338121 -341.24704968 266.35086517 -333.04998779 303.29681396 C-332.8214209 304.34941406 -332.592854 305.40201416 -332.35736084 306.48651123 C-328.95375397 321.03174966 -322.58838492 330.19919645 -309.98748779 338.23431396 C-245.71417765 375.37667855 -65.00763263 359.89953385 41.45001221 349.73431396 C42.26002686 349.63871185 43.0700415 349.54310974 43.90460205 349.4446106 C52.92198196 348.36470363 61.84228475 346.97855968 70.75469971 345.22650146 C71.58098373 345.06540894 72.40726776 344.90431641 73.2585907 344.73834229 C86.82049261 341.97294038 97.71409145 336.13640898 107.18829346 326.06634521 C113.44296991 316.3561944 114.46578566 304.79506101 116.01251221 293.60931396 C116.13880005 292.71982056 116.26508789 291.83032715 116.39520264 290.91387939 C120.19018738 264.13029621 122.77912146 237.24316847 124.26251221 210.23431396 C124.30380249 209.49088745 124.34509277 208.74746094 124.38763428 207.98150635 C125.28360265 191.4065548 125.14249631 174.9319902 124.26251221 158.35931396 C124.2196106 157.5461673 124.17670898 156.73302063 124.13250732 155.89523315 C122.80838523 131.46671884 119.79217235 107.33300509 116.01251221 83.17181396 C115.89299194 82.38813446 115.77347168 81.60445496 115.65032959 80.79702759 C113.44242258 66.45984355 110.42895925 54.09395934 98.76251221 44.54681396 C85.26760685 34.67304155 69.89010731 32.82877171 53.70001221 30.79681396 C52.87348145 30.69170502 52.04695068 30.58659607 51.19537354 30.478302 C-47.93083898 17.97728095 -150.27895297 17.35384113 -277.36248779 31.79681396 Z " fill="#000000" transform="translate(403.98748779296875,110.76568603515625)"/>
<path d="M0 0 C4.30841724 1.43613908 7.21065872 2.52706093 10.95703125 4.765625 C11.89160156 5.31863281 12.82617188 5.87164062 13.7890625 6.44140625 C14.78679687 7.03824219 15.78453125 7.63507813 16.8125 8.25 C25.31634624 13.27736565 33.86424302 18.20273473 42.5 23 C51.72974156 28.13552839 60.87238792 33.40213603 69.98046875 38.75 C77.1052819 42.92243959 84.28546141 46.98495244 91.5 51 C100.72271189 56.13263966 109.8599339 61.3935276 118.96069336 66.73901367 C127.31682711 71.63384015 135.76033773 76.36216602 144.22241211 81.07080078 C152.25101832 85.55000562 160.16795213 90.18615594 168 95 C166.70370192 98.88889425 165.3996439 99.166712 161.83984375 101.08203125 C160.74849121 101.67701416 159.65713867 102.27199707 158.53271484 102.88500977 C157.94754089 103.19866486 157.36236694 103.51231995 156.75946045 103.83547974 C153.65329394 105.50115125 150.56405164 107.19774532 147.47265625 108.890625 C146.84145874 109.23525284 146.21026123 109.57988068 145.55993652 109.93495178 C139.59841326 113.19824303 133.72951328 116.61119649 127.875 120.0625 C119.80388333 124.80876259 111.68184626 129.44727007 103.5 134 C95.2779741 138.575664 87.1141857 143.23570748 79 148 C70.8858126 152.76429352 62.72199404 157.42427602 54.5 162 C46.09091408 166.67989054 37.74060074 171.44698036 29.4375 176.3125 C22.51779895 180.36484079 15.59822314 184.41522553 8.625 188.375 C7.97072021 188.75052002 7.31644043 189.12604004 6.64233398 189.51293945 C2.23484688 192 2.23484688 192 0 192 C0 128.64 0 65.28 0 0 Z M24 42 C24 77.64 24 113.28 24 150 C27.49472611 148.60210955 30.44993488 147.28283805 33.67578125 145.453125 C34.57361328 144.94523437 35.47144531 144.43734375 36.39648438 143.9140625 C37.35876953 143.36492187 38.32105469 142.81578125 39.3125 142.25 C40.32505859 141.67507813 41.33761719 141.10015625 42.38085938 140.5078125 C50.62512943 135.81421698 58.8187651 131.03572191 67.00390625 126.23999023 C73.90599826 122.20237845 80.84513322 118.23628609 87.8125 114.3125 C89.69536158 113.25008699 91.57817478 112.18758821 93.4609375 111.125 C96.25581304 109.5476452 99.0511833 107.97122365 101.84863281 106.3984375 C104.54920232 104.87720098 107.24396948 103.34615653 109.9375 101.8125 C110.75516846 101.35464111 111.57283691 100.89678223 112.4152832 100.42504883 C114.31053204 99.34018796 116.16117205 98.17796563 118 97 C118 96.34 118 95.68 118 95 C117.42894531 94.67950684 116.85789062 94.35901367 116.26953125 94.02880859 C104.11520143 87.200452 92.01793903 80.28594917 79.99072266 73.23608398 C72.22309437 68.69165023 64.39862463 64.25560971 56.55004883 59.8527832 C48.56206291 55.35629896 40.67461531 50.69875718 32.82763672 45.96069336 C31.96025879 45.44128174 31.09288086 44.92187012 30.19921875 44.38671875 C29.43440186 43.92483154 28.66958496 43.46294434 27.8815918 42.98706055 C26.05894679 41.8451507 26.05894679 41.8451507 24 42 Z " fill="#000000" transform="translate(228,204)"/>
</svg>
